<svg width="757" height="110" xmlns="http://www.w3.org/2000/svg">
  <g fill="none" fill-rule="evenodd">
    <path d="M366.74 27.73c-.92-10.42 3.7-20.94 12.22-27.06 7.73 6.38 12.98 16.08 13.18 26.2 2.11-.27 4.31-1.14 6.43-.41 3.25.92 5.57 3.5 7.77 5.89-4.77 2-10.49 1.81-14.55 5.36-5.37 4.58-9.36 11.08-10.16 18.17-.38 3.07-.76 6.14-1.01 9.22-1.14.02-2.27.05-3.41.07-.6-8.6-1.87-17.81-7.93-24.45-4.04-5.74-11.41-6.41-17.64-8.05 2.07-3.34 5.38-6.1 9.37-6.62 2 .19 3.85 1.04 5.73 1.68zm11.44-15.11c-3.49 6.02-6.98 13.69-3.73 20.52 1.51-.82 3-1.68 4.49-2.53 1.47.86 2.94 1.71 4.43 2.53 2.51-4.77.93-10.1-.61-14.89-.86-2.32-2.21-4.63-4.58-5.63zM204.55 36.55c3.54-5.56 9.92-8.9 16.33-9.68 5.11.89 10.24 2.64 14.27 6.01 2.38 2.53 2.96 6.35 2.42 9.69-.38 2.17-2.72 2.88-4.53 3.46-2.64-.53-3.14-3.37-2.58-5.59 1.21-4.49-2.78-9.37-7.41-9.07-4.15-.26-9.19.27-11.66 4.09-5.16 8.71-1.03 20.66 7.27 25.82 8.06 5.04 18.3 4.6 26.97 1.45 2.9-1.23 6.46-1.45 8.81-3.66.09-2.88-.33-5.78.1-8.65 2.21-6.36 6.64-12.44 13.24-14.69 12.7-4.94 27.17-1.43 38.34 5.64 17.14-2.6 36.13-4.6 51.66 4.88 7.72 3.87 13.23 12.63 11.86 21.36-.53 4.84-4.53 8.13-8.23 10.78-5.5 3.79-12.72 3.47-18.92 1.82-9.98-3.05-16.71-12.21-26.77-15.06-4.38-1.3-9.04-1.88-13.58-1.21-3.14.59-5.6 2.75-8.26 4.36-.94-7.07 6.21-11.25 12.12-12.59 4.66-1.14 9.09 1.05 13.42 2.44-3.44-5.06-8.63-8.65-13.65-11.97-5.52.62-10.75 2.73-16.01 4.42-4.47 1.54-9.07 2.77-13.31 4.91-5.31 2.51-11.08 3.88-16.36 6.47 1.74 3.85 4.89 7.25 9.25 7.89 4.81 1.67 7.52-5.31 12.31-3.82.04 2.33.62 5.44-2.15 6.49-3.91 1.36-8.31.81-12.32.09-5.01-.97-8.14-5.45-11.2-9.12-12.04 4.58-25.62 6.57-38.11 2.6-6.18-2.02-12.32-6.21-14.27-12.71-1.75-5.4-2.44-11.93.95-16.85zm59.9 5.91c-4.2 3.56-5.74 9.36-5.56 14.69 4.33-1.46 8.06-4.19 12.27-5.92 9.27-3.6 18.66-7.03 28.46-8.92a50.461 50.461 0 0 0-12.65-4.27c-7.67-1.87-16.06-.03-22.52 4.42zm47.03 2.02c4.59 4.09 9.97 7.3 13.83 12.18.31-2.91-.21-6.34 2.53-8.25 5.35 2.94 6.66 9.23 9.62 14.08 2.83 5.22 6.14 11.14 12.27 12.87 5.52 2.08 12.29-.49 15.05-5.66 1.19-4.93.63-10.71-2.92-14.6-5.66-7.92-15.65-10.84-24.87-11.89-8.52-.14-17.1-.41-25.51 1.27zM533.57 27.64c4.72-1.94 9.72.71 13.79 3.04 3.93 2.94 8.7 6.77 8.2 12.25-.21 4.05.82 8.53-1.51 12.16-3.58 6.2-10.03 10.32-16.96 11.82-11.58 2.62-24 1.28-34.88-3.41-2.53 2.99-4.84 6.48-8.62 8.01-4.71 1.95-10.21 2.46-15.12 1.13-3.02-.97-2.36-4.27-2.23-6.71 4.86-1.35 7.55 5.28 12.42 3.85 4.5-.41 7.81-3.83 9.58-7.75-6.82-2.67-13.88-4.77-20.46-8.03-7.67-2.86-15.45-5.47-23.39-7.48-1.95-.82-3.68.63-5.21 1.65-4.04 3.04-8.17 6.15-11 10.42 4.31-1.62 8.74-3.86 13.5-3.03 3.83.81 7.34 2.94 10.14 5.63 2.02 1.74 1.87 4.58 2.17 6.99-3.07-1.98-6.2-4.34-10-4.47-6.68-.43-12.95 2.44-18.75 5.41-6.41 3.04-11.8 7.88-18.38 10.59-6.78 2.32-14.88 2.6-21.03-1.56-4.27-3.01-7.51-7.83-7.9-13.12.26-7.92 5.65-14.8 12.17-18.85 6.19-3.62 13.23-5.67 20.3-6.67 10.21-.67 20.47-.1 30.53 1.82 4.73-1.3 8.7-4.79 13.59-5.89 9.91-3.1 21.42-2.97 30.36 2.79 3.2 2.39 5.88 5.58 7.74 9.11 1.45 4 .51 8.38.96 12.54 7.32 2.26 14.61 5.52 22.43 5.19 6.24-.13 12.8-2.23 17.01-7.04 5.76-5.88 7.77-15.96 3.04-23.04-2.77-3.69-7.9-3.86-12.1-3.58-2.24 0-4.37 1.4-5.41 3.34-1.48 3.45.41 7.27-.91 10.8-2.41-.2-5.85.61-7.05-2.17-1.37-3.45-.39-7.87 2.46-10.36 2.73-3.02 6.75-4.23 10.52-5.38zm-75.35 14.68c14.46 2.97 28.36 8.29 41.39 15.19-.03-2.72.28-5.59-.92-8.13-2.5-6.45-9.26-10.03-15.7-11.37-8.45-2.1-17.17.66-24.77 4.31zm-58.25 8.62c-3.74 3.68-7.28 8.52-6.81 14.05-.28 3.66 1.16 7.68 4.72 9.25 5.28 3.38 12.42 1.59 16.53-2.81 6.04-5.3 7.42-13.7 11.94-20.04 1.38-1.02 3.17-3.59 4.97-2.07.7 2.28.9 4.67 1.31 7.02 4.37-4.11 9.03-7.88 13.66-11.7-5.97-1.6-12.16-1.62-18.29-1.49-9.74-.35-20.35 1.36-28.03 7.79zM371.06 82.16c1.98-3.59 3.14-8.19 7.17-10.08 3.66-.03 5.54 3.92 6.79 6.82 1.59 4.43 5.09 7.72 8.88 10.32-2.46 1.96-5.51 2.73-8.6 2.18.16 6.7-2.01 13.33-6.33 18.48-4.53-4.99-6.69-11.77-6.47-18.45-2.72.37-5.45-.05-7.77-1.57 1.46-3.09 4.74-4.71 6.33-7.7z" fill="#605040" fill-rule="nonzero"/>
    <path d="M566 46h189.5M2 46h189.5" stroke="#605040" stroke-width="3" stroke-linecap="round"/>
  </g>
</svg>
