<svg width="757" height="75" xmlns="http://www.w3.org/2000/svg">
  <g fill="none" fill-rule="evenodd">
    <path d="M230.16 15.916c1.7-1.331 3.548-2.831 5.83-2.837 3.307-.067 6.844-.415 9.879 1.163 2.48 1.197 5.244 2.815 5.9 5.702.564 2.662.677 5.505.106 8.173-1.226 3.354-7.148 2.882-7.52-.77.92-2.173 3.175-3.735 3.474-6.15-.367-2.9-3.424-4.72-6.165-4.876-3.108-.152-6.679-.292-9.188 1.859-1.825 1.809-2.972 4.325-3.074 6.898-.164 3.337-.186 6.954 1.763 9.847 3.617 5.5 9.635 8.988 15.89 10.752 4.877 1.292 9.867 2.477 14.952 2.309a115.44 115.44 0 0 0 27.119-2.63c6.758-1.701 13.703-2.903 20.083-5.79 4.425-1.574 8.945-2.866 13.37-4.444-2.498-1.69-5.255-2.95-8.002-4.174-7.012 3.343-14.506 5.668-22.168 6.966-7.267 1.314-15.06.084-21.31-3.916-2.18-1.561-3.175-4.291-3.661-6.825.028-2.982 1.367-6.263 4.17-7.684 4.42-2.511 9.754-2.972 14.732-2.376 5.25.382 10.301 1.96 15.302 3.477 3.905 1.18 7.132 4.112 11.223 4.685 4.583-.663 8.33-3.747 12.788-4.831 8.075-2.157 16.365-3.416 24.671-4.314 6.759-.91 13.619.37 20.038 2.471 3.069.972 5.436 3.213 7.635 5.45 3.616-2.635 7.21-5.618 11.691-6.646 4.086-.916 8.267-1.691 12.477-1.556 10.087.635 20.151 2.106 29.87 4.92 4.08 1.236 7.686 3.893 11.924 4.573 3.876-.764 6.94-3.544 10.674-4.73 6.228-1.994 12.675-3.544 19.242-3.769 4.605.28 9.77.742 13.172 4.219 2.141 1.949 2.283 5.14 1.78 7.791-1.034 3.606-4.21 6.246-7.702 7.41-4.741 1.808-9.884 2.6-14.936 1.898-4.6-.72-9.244-1.382-13.663-2.893-3.645-1.253-7.228-2.685-10.748-4.235-2.526 1.41-5.369 2.263-7.618 4.128 3.402 1.281 6.923 2.197 10.358 3.393 2.594.893 5.007 2.242 7.64 3.022 12.438 3.455 25.164 6.45 38.15 6.404 5.938.062 12.013.09 17.72-1.78 4.42-1.484 9.155-2.82 12.602-6.124 2.803-2.55 5.916-5.263 6.628-9.184.933-4.342.548-9.948-3.373-12.774-2.865-2.123-6.714-2.134-10.093-1.584-2.882.567-5.735 3.724-4.232 6.702.796 1.994 3.272 4.404 1.147 6.415-2.82 1.994-6.651-.506-7.12-3.601-1.034-6.477 5.035-12.903 11.544-12.611 2.549.022 5.148-.214 7.663.314 4.679 1.506 8.205 5.831 8.945 10.645.667 4.573.153 9.6-2.69 13.403-2.333 3.478-5.786 6.067-9.595 7.78-7.227 3.247-14.856 6.258-22.925 6.163-5.459-.113-10.929.157-16.382-.13-4.56-.539-9.166-.836-13.641-1.859-10.957-2.915-22.417-4.275-32.832-8.954-2.497-1.05-4.95-2.663-7.77-2.51-4.401.291-8.357 2.555-12.714 3.106-5.526.932-11.703-.264-15.85-4.18-1.831-1.59-.492-4.055.706-5.583 1.418-2.101 4.046-2.736 6.391-3.18 5.193-.96 10.448.225 15.512 1.37 2.836.636 5.311 2.377 8.199 2.826 3.22-.14 5.894-2.23 8.572-3.791-4.673-2.753-10.171-3.444-15.048-5.725-6.329-3.342-13.692-3.46-20.648-4.302-5.182.522-10.918.69-15.161 4.1a111.574 111.574 0 0 0-4.708 3.747c3.267 6.056 5.917 12.78 5.487 19.773-.254 5.528.967 11.628-2.243 16.56-1.458 2.764-4.78 4.573-7.9 3.814-2.531-.904-3.679-3.567-4.933-5.718-2.22-3.73-2.6-8.179-2.616-12.414.079-3.697.56-7.443 1.95-10.893 1.423-3.572 2.729-7.212 4.65-10.571-2.696-3.354-6.448-5.82-10.64-6.87-6.686-1.607-13.653-1.05-20.372.01-4.741.737-9.126 2.72-13.68 4.118-3.753 1.208-7.29 2.989-11.048 4.18 3.012 1.556 5.73 4.544 9.403 4.095 2.933-.438 5.38-2.32 8.239-3.034 6.142-1.629 13.087-2.696 18.981.332 2.526 1.163 3.973 4.376 2.82 6.965-.803 1.652-2.701 2.264-4.278 2.944-4.673 1.977-10.03 2.297-14.896.854-3.102-.927-6.125-2.208-9.363-2.584-2.656-.281-5.007 1.235-7.29 2.342-2.921 1.584-6.21 2.247-9.369 3.196-7.25 2.287-14.72 3.764-22.145 5.331-7.72 1.972-15.721 2.826-23.683 2.618-5.103-.101-10.256.365-15.303-.601-4.35-.63-8.3-2.635-12.397-4.1-5.713-2.113-11.121-5.652-14.337-10.915-1.582-2.646-1.096-5.831-1.192-8.758.08-2.14-.243-4.387.576-6.42 1.023-2.062 2.848-3.568 4.583-5.017zm43.212 6.197c-1.537 1.342-2.78 3.514-2.246 5.628 1.002 2.195 2.989 3.814 5.082 4.862 3.658 1.561 7.755 1.602 11.639 1.14 3.64-.535 7.434-.737 10.788-2.442 3-1.55 6.242-2.488 9.365-3.721-1.93-1.325-4.114-2.172-6.326-2.846-3.692-1.112-7.046-3.203-10.845-3.964-2.943-.743-5.993-.789-9.01-.766-2.904-.023-6.084.173-8.447 2.109zm187.335.242c-4.184 1.897-8.635 3.1-12.707 5.271 1.958.562 3.927 1.118 5.83 1.862 2.727 1.043 5.237 2.716 8.149 3.209 6.197 1.089 12.908 2.44 18.888-.35 2.482-.922 4.122-3.523 4.133-6.205-.212-2.354-1.997-4.337-4.094-5.168-2.795-1.186-5.88-.95-8.836-.962a27.667 27.667 0 0 0-11.363 2.343zm-86.412 21.862c-.688 4.904-.205 10.048 1.79 14.621.557 1.454 2.183 2.561 3.78 2.024 1.37-.917 2.04-2.499 2.427-4.02.927-3.489.66-7.123.705-10.684.006-5.34-1.131-11.026-4.786-15.158-2.08 4.143-3.143 8.683-3.916 13.217zm-27.733-12.089c-4.021.6-8.127 1.523-11.562 4.012 6.442 1.34 13.29 3.137 19.671.526.969-.392.924-1.737 1.329-2.6-2.945-1.406-6.195-2.439-9.438-1.938zM400 34.618c.84.96 1.596 2.189 2.882 2.505 5.965 1.716 12.239.651 18.118-.943-3.123-1.964-6.623-3.102-10.163-3.825-3.694-.882-7.76-.116-10.837 2.262z" fill="#57483A" fill-rule="nonzero"/>
    <path d="M2 2h753.5" stroke="#57483A" stroke-width="3" stroke-linecap="round"/>
  </g>
</svg>
